<svg xmlns="http://www.w3.org/2000/svg" version="1.1" xmlns:xlink="http://www.w3.org/1999/xlink" width="512" height="512" x="0" y="0" viewBox="0 0 128 128" style="enable-background:new 0 0 512 512" xml:space="preserve" class=""><g transform="matrix(6.123233995736765e-17,1.0000000000000004,-1.0000000000000004,6.123233995736765e-17,128.00006294250488,0.00006294250485439079)"><path d="M44 108a3.988 3.988 0 0 1-2.828-1.172 3.997 3.997 0 0 1 0-5.656L78.344 64 41.172 26.828c-1.563-1.563-1.563-4.094 0-5.656s4.094-1.563 5.656 0l40 40a3.997 3.997 0 0 1 0 5.656l-40 40A3.988 3.988 0 0 1 44 108z" fill="#2e317e" opacity="1" data-original="#000000" class=""></path></g></svg>