<svg xmlns="http://www.w3.org/2000/svg" version="1.1" xmlns:xlink="http://www.w3.org/1999/xlink" width="512" height="512" x="0" y="0" viewBox="0 0 24 24" style="enable-background:new 0 0 512 512" xml:space="preserve" class=""><g transform="matrix(-1,-1.2246467991473532e-16,1.2246467991473532e-16,-1,24,24)"><g fill="#000" fill-rule="evenodd" clip-rule="evenodd"><path d="M12 20.5a8.5 8.5 0 1 0 0-17 8.5 8.5 0 0 0 0 17zm0 1.5c5.523 0 10-4.477 10-10S17.523 2 12 2 2 6.477 2 12s4.477 10 10 10z" fill="#2e317e" opacity="1" data-original="#000000" class=""></path><path d="M10.22 7.97a.75.75 0 0 1 1.06 0l3.5 3.5a.75.75 0 0 1 0 1.06l-3.5 3.5a.75.75 0 1 1-1.06-1.06L13.19 12l-2.97-2.97a.75.75 0 0 1 0-1.06z" fill="#2e317e" opacity="1" data-original="#000000" class=""></path></g></g></svg>