<svg xmlns="http://www.w3.org/2000/svg" version="1.1" xmlns:xlink="http://www.w3.org/1999/xlink" width="512" height="512" x="0" y="0" viewBox="0 0 512 512" style="enable-background:new 0 0 512 512" xml:space="preserve" class=""><g transform="matrix(0.9999999999999998,0,0,0.9999999999999998,5.684341886080802e-14,1.1368683772161603e-13)"><path d="M362.515 77.014c-8.487-9.062-22.782-9.536-31.858-1.042l-24.479 22.93-133.787-60.118c-11.332-5.097-24.698-.019-29.795 11.317l-78.64 175H31.732c-12.758 0-23.135 10.379-23.135 23.137v203.827c0 12.753 10.377 23.132 23.135 23.132h347.137c12.758 0 23.135-10.379 23.135-23.132V341.062l94.263-88.3c9.092-8.518 9.561-22.761 1.042-31.854zm-211.07-22.933c2.899-6.457 10.512-9.347 16.971-6.447l130.088 58.456-16.723 15.664-81.9-36.8a4.798 4.798 0 0 0-3.709-.109 4.849 4.849 0 0 0-2.703 2.544c-5.896 13.126-21.276 18.936-34.362 13.056a4.798 4.798 0 0 0-3.709-.109 4.858 4.858 0 0 0-2.703 2.544L97.771 225.102H74.594zm122.663 74.862-102.654 96.159H108.41l51.281-114.117c15.096 4.479 31.793-1.588 40.345-15.325zm118.193 323.122c0 7.404-6.026 13.43-13.433 13.43H31.732c-7.407 0-13.433-6.026-13.433-13.43V248.239c0-7.409 6.026-13.435 13.433-13.435h347.137c7.407 0 13.433 6.026 13.433 13.435v203.826zm-13.432-226.963H230.766l92.2-86.366c12.379 10.057 30.117 10.64 43.131 1.407l68.447 73.068c-10.062 12.388-10.64 30.124-1.409 43.133l-31.131 29.162v-37.268c-.001-12.757-10.378-23.136-23.135-23.136zm110.765 20.583-87.63 82.085V298.8l41.065-38.467a4.847 4.847 0 0 0 .226-6.854c-9.799-10.46-9.259-26.941 1.199-36.742a4.849 4.849 0 0 0 .225-6.855l-74.631-79.672a4.861 4.861 0 0 0-6.857-.223c-10.458 9.801-26.939 9.261-36.738-1.199a4.858 4.858 0 0 0-6.857-.223l-103.057 96.537h-30.933L337.289 83.054c5.168-4.842 13.309-4.576 18.144.592l134.793 143.895h.002c4.831 5.159 4.602 13.272-.594 18.144z" fill="#248c44" opacity="1" data-original="#000000" class=""></path><path d="M365.268 288.875c-14.906 0-27.033-12.127-27.033-27.036a4.85 4.85 0 0 0-4.851-4.851H77.217a4.85 4.85 0 0 0-4.851 4.851c0 14.908-12.127 27.036-27.033 27.036a4.85 4.85 0 0 0-4.851 4.851v112.852a4.85 4.85 0 0 0 4.851 4.851c14.906 0 27.033 12.127 27.033 27.036a4.85 4.85 0 0 0 4.851 4.851h256.167a4.85 4.85 0 0 0 4.851-4.851c0-14.908 12.127-27.036 27.033-27.036a4.85 4.85 0 0 0 4.851-4.851V293.726a4.85 4.85 0 0 0-4.851-4.851zm-4.851 113.169c-16.384 2.174-29.395 15.183-31.565 31.569H81.748c-2.17-16.386-15.181-29.395-31.565-31.569V298.26c16.384-2.174 29.395-15.183 31.565-31.569h247.104c2.17 16.386 15.181 29.395 31.565 31.569z" fill="#248c44" opacity="1" data-original="#000000" class=""></path><path d="M205.301 293.376c-26.079 0-47.295 25.468-47.295 56.776s21.216 56.776 47.295 56.776c26.076 0 47.292-25.468 47.292-56.776s-21.215-56.776-47.292-56.776zm0 103.851c-20.728 0-37.593-21.119-37.593-47.074s16.865-47.074 37.593-47.074 37.59 21.119 37.59 47.074-16.862 47.074-37.59 47.074zM100.103 323.78c-14.553 0-26.394 11.839-26.394 26.391 0 14.529 11.841 26.354 26.394 26.354 14.529 0 26.351-11.824 26.351-26.354 0-14.553-11.822-26.391-26.351-26.391zm0 43.043c-9.205 0-16.692-7.471-16.692-16.652 0-9.205 7.487-16.689 16.692-16.689 9.181 0 16.649 7.485 16.649 16.689 0 9.181-7.469 16.652-16.649 16.652zM310.54 323.78c-14.553 0-26.394 11.839-26.394 26.391 0 14.529 11.841 26.354 26.394 26.354 14.529 0 26.351-11.824 26.351-26.354 0-14.553-11.822-26.391-26.351-26.391zm0 43.043c-9.205 0-16.692-7.471-16.692-16.652 0-9.205 7.487-16.689 16.692-16.689 9.181 0 16.649 7.485 16.649 16.689 0 9.181-7.468 16.652-16.649 16.652z" fill="#248c44" opacity="1" data-original="#000000" class=""></path><path d="M205.301 317.626c-2.679 0-4.851 2.17-4.851 4.851s2.172 4.851 4.851 4.851c5.438 0 13.338 8.892 13.338 22.824 0 2.681 2.172 4.851 4.851 4.851s4.851-2.17 4.851-4.851c0-19.456-11.914-32.526-23.04-32.526z" fill="#248c44" opacity="1" data-original="#000000" class=""></path></g></svg>