<?xml version="1.0" encoding="utf-8"?>
<!-- Generator: Adobe Illustrator 27.5.0, SVG Export Plug-In . SVG Version: 6.00 Build 0)  -->
<svg version="1.1" xmlns="http://www.w3.org/2000/svg" xmlns:xlink="http://www.w3.org/1999/xlink" x="0px" y="0px"
	 viewBox="0 0 750 500" style="enable-background:new 0 0 750 500;" xml:space="preserve">
<g id="Floor">
	
		<line id="Floor_00000123402545067637095970000003473270706424810931_" style="fill:#303030;stroke:#303030;stroke-width:1.5;stroke-linecap:round;stroke-linejoin:round;stroke-miterlimit:10;" x1="38.281" y1="469.457" x2="705.963" y2="469.457"/>
</g>
<g id="Device">
	<g id="Devcie">
		<g>
			
				<path style="fill:#2e317e;stroke:#303030;stroke-width:1.5;stroke-linecap:round;stroke-linejoin:round;stroke-miterlimit:10;" d="
				M621.822,436.689H148.231c-7.991,0-14.469-6.478-14.469-14.469V132.286c0-7.991,6.478-14.469,14.469-14.469h473.591
				c7.991,0,14.469,6.478,14.469,14.469V422.22C636.291,430.211,629.813,436.689,621.822,436.689z"/>
			<path style="fill:#303030;" d="M389.276,127.626c0,2.347-1.903,4.25-4.25,4.25c-2.347,0-4.25-1.903-4.25-4.25
				c0-2.347,1.903-4.25,4.25-4.25C387.374,123.377,389.276,125.279,389.276,127.626z"/>
			
				<path style="fill:#FFFFFF;stroke:#303030;stroke-width:1.5;stroke-linecap:round;stroke-linejoin:round;stroke-miterlimit:10;" d="
				M154.292,413.69V140.815c0-1.364,1.105-2.469,2.469-2.469h456.531c1.363,0,2.469,1.105,2.469,2.469V413.69
				c0,1.363-1.105,2.469-2.469,2.469H156.76C155.397,416.159,154.292,415.053,154.292,413.69z"/>
		</g>
		<g>
			
				<path style="fill:#303030;stroke:#303030;stroke-width:1.5;stroke-linecap:round;stroke-linejoin:round;stroke-miterlimit:10;" d="
				M645.671,469.457H124.382c-8.624,0-15.616-6.991-15.616-15.616v-11.527c0-3.113,2.524-5.637,5.637-5.637H655.65
				c3.113,0,5.637,2.524,5.637,5.637v11.527C661.287,462.466,654.295,469.457,645.671,469.457z"/>
			
				<path style="fill:#303030;stroke:#FFFFFF;stroke-width:1.5;stroke-linecap:round;stroke-linejoin:round;stroke-miterlimit:10;" d="
				M423.387,436.531v6.901c0,3.932-2.655,7.12-5.93,7.12h-64.862c-3.275,0-5.93-3.188-5.93-7.12v-6.901"/>
			
				<line style="fill:#303030;stroke:#FFFFFF;stroke-width:1.5;stroke-linecap:round;stroke-linejoin:round;stroke-miterlimit:10;" x1="537.883" y1="453.067" x2="662.031" y2="453.067"/>
			
				<line style="fill:#303030;stroke:#FFFFFF;stroke-width:1.5;stroke-linecap:round;stroke-linejoin:round;stroke-miterlimit:10;" x1="232.169" y1="453.067" x2="108.021" y2="453.067"/>
		</g>
	</g>
</g>
<g id="Window">
	<g id="Window_00000038384217120084284160000002966056193239426980_">
		<g>
			
				<path style="fill:#303030;stroke:#303030;stroke-width:1.5;stroke-linecap:round;stroke-linejoin:round;stroke-miterlimit:10;" d="
				M209.158,385.74V97.476c0-3.894,3.156-7.05,7.05-7.05h453.095c3.894,0,7.05,3.157,7.05,7.05V385.74c0,3.894-3.156,7.05-7.05,7.05
				H216.208C212.314,392.79,209.158,389.633,209.158,385.74z"/>
			
				<path style="fill:#FFFFFF;stroke:#248C44;stroke-width:1.5;stroke-linecap:round;stroke-linejoin:round;stroke-miterlimit:10;" d="
				M220.95,372.78V84.517c0-3.894,3.156-7.05,7.05-7.05h453.095c3.894,0,7.05,3.157,7.05,7.05V372.78c0,3.894-3.156,7.05-7.05,7.05
				H228C224.107,379.831,220.95,376.674,220.95,372.78z"/>
			
				<line style="fill:#FFFFFF;stroke:#248C44;stroke-width:1.5;stroke-linecap:round;stroke-linejoin:round;stroke-miterlimit:10;" x1="220.95" y1="105.777" x2="688.145" y2="105.777"/>
			
				<path style="fill:#2e317e;stroke:#2e317e;stroke-width:1.5;stroke-linecap:round;stroke-linejoin:round;stroke-miterlimit:10;" d="
				M674.845,91.622c0,3.293-2.67,5.963-5.963,5.963c-3.294,0-5.964-2.67-5.964-5.963c0-3.294,2.67-5.964,5.964-5.964
				C672.175,85.659,674.845,88.328,674.845,91.622z"/>
			
				<path style="fill:#248C44;stroke:#248C44;stroke-width:1.5;stroke-linecap:round;stroke-linejoin:round;stroke-miterlimit:10;" d="
				M650.393,91.622c0,3.293-2.67,5.963-5.964,5.963c-3.294,0-5.964-2.67-5.964-5.963c0-3.294,2.67-5.964,5.964-5.964
				C647.722,85.659,650.393,88.328,650.393,91.622z"/>
			
				<path style="fill:#FF95FB;stroke:#FF95FB;stroke-width:1.5;stroke-linecap:round;stroke-linejoin:round;stroke-miterlimit:10;" d="
				M625.94,91.622c0,3.293-2.67,5.963-5.964,5.963c-3.294,0-5.963-2.67-5.963-5.963c0-3.294,2.67-5.964,5.963-5.964
				C623.27,85.659,625.94,88.328,625.94,91.622z"/>
		</g>
		<g>
			
				<path style="fill:#FFFFFF;stroke:#303030;stroke-width:1.5;stroke-linecap:round;stroke-linejoin:round;stroke-miterlimit:10;" d="
				M250.708,289.492c0,5.477,2.224,10.439,5.81,14.025c3.586,3.586,8.534,5.81,14.025,5.81h330.575v-39.67H270.543
				C259.576,269.657,250.708,278.539,250.708,289.492z"/>
			
				<path style="fill:#248C44;stroke:#303030;stroke-width:1.5;stroke-linecap:round;stroke-linejoin:round;stroke-miterlimit:10;" d="
				M601.118,269.657v39.67h37.434c10.953,0,19.835-8.882,19.835-19.835c0-5.477-2.224-10.439-5.81-14.025
				c-3.586-3.586-8.548-5.81-14.025-5.81H601.118z"/>
			<g>
				
					<circle style="fill:none;stroke:#FFFFFF;stroke-width:2;stroke-linecap:round;stroke-linejoin:round;stroke-miterlimit:10;" cx="629.925" cy="286.722" r="9.863"/>
				
					<line style="fill:none;stroke:#FFFFFF;stroke-width:2;stroke-linecap:round;stroke-linejoin:round;stroke-miterlimit:10;" x1="622.95" y1="293.696" x2="614.521" y2="302.125"/>
			</g>
		</g>
		<g>
			<path style="fill:#248C44;" d="M341.669,233.48c-3.843,0-7.131-0.657-9.866-1.967c-1.413-0.678-2.757-1.53-4.032-2.557
				c-1.987-1.602-2.165-4.571-0.36-6.376l0,0c1.553-1.554,4.03-1.671,5.726-0.274c0.702,0.578,1.444,1.082,2.226,1.511
				c1.853,1.017,4.113,1.526,6.781,1.526c2.395,0,4.306-0.475,5.73-1.424c1.424-0.95,2.136-2.261,2.136-3.934
				c0-1.446-0.407-2.621-1.22-3.525c-0.814-0.904-1.888-1.672-3.221-2.306c-1.334-0.633-2.804-1.209-4.407-1.729
				c-1.605-0.519-3.21-1.119-4.815-1.797c-1.605-0.678-3.074-1.526-4.408-2.542c-1.334-1.017-2.407-2.328-3.221-3.933
				c-0.814-1.604-1.22-3.628-1.22-6.069c0-2.893,0.7-5.357,2.102-7.391c1.401-2.035,3.323-3.594,5.764-4.679
				c2.441-1.085,5.197-1.628,8.273-1.628c3.254,0,6.192,0.61,8.815,1.831c0.926,0.431,1.793,0.908,2.601,1.429
				c2.248,1.451,2.498,4.659,0.606,6.552l-0.007,0.007c-1.448,1.448-3.765,1.739-5.421,0.534c-0.577-0.42-1.159-0.774-1.746-1.063
				c-1.469-0.723-3.131-1.085-4.984-1.085c-2.126,0-3.797,0.407-5.018,1.221c-1.22,0.813-1.83,1.989-1.83,3.526
				c0,1.312,0.407,2.373,1.22,3.187c0.814,0.814,1.888,1.515,3.221,2.102c1.333,0.588,2.802,1.153,4.408,1.695
				c1.604,0.542,3.21,1.152,4.815,1.831c1.604,0.678,3.074,1.56,4.407,2.645c1.333,1.085,2.407,2.475,3.221,4.17
				c0.814,1.695,1.22,3.787,1.22,6.272c0,4.431-1.56,7.912-4.679,10.443C351.366,232.215,347.094,233.48,341.669,233.48z"/>
			<path style="fill:#303030;" d="M366.42,228.868v-43.737h9.222v47.671h-5.288C368.181,232.801,366.42,231.041,366.42,228.868z
				 M373.201,193.268v-8.137h22.105c2.172,0,3.933,1.761,3.933,3.933v0.271c0,2.172-1.761,3.933-3.933,3.933H373.201z
				 M373.201,212.39v-7.866h20.071c2.172,0,3.933,1.761,3.933,3.933l0,0c0,2.172-1.761,3.933-3.933,3.933H373.201z M373.201,232.801
				v-8.138h22.445c2.172,0,3.933,1.761,3.933,3.933v0.271c0,2.172-1.761,3.933-3.933,3.933H373.201z"/>
			<path style="fill:#303030;" d="M406.168,226.703l16.735-41.572h7.527l16.678,41.577c1.17,2.917-0.978,6.094-4.121,6.094h-0.197
				c-1.847,0-3.501-1.143-4.154-2.871l-13.698-36.255h3.391l-13.894,36.274c-0.658,1.718-2.307,2.852-4.147,2.852h0
				C407.141,232.801,404.993,229.621,406.168,226.703z M413.884,223.919v-7.731h25.632v7.731H413.884z"/>
			<path style="fill:#303030;" d="M455.181,228.191v-43.06h9.221v43.06c0,2.546-2.064,4.611-4.611,4.611l0,0
				C457.245,232.801,455.181,230.737,455.181,228.191z M461.961,212.865v-7.187h11.053c2.26,0,4.011-0.576,5.255-1.729
				c1.243-1.152,1.865-2.746,1.865-4.781c0-1.853-0.622-3.401-1.865-4.644c-1.244-1.243-2.995-1.865-5.255-1.865h-11.053v-7.527
				h11.866c3.074,0,5.774,0.6,8.103,1.797c2.328,1.198,4.137,2.837,5.425,4.916c1.288,2.08,1.932,4.475,1.932,7.188
				c0,2.803-0.644,5.233-1.932,7.289c-1.288,2.058-3.108,3.662-5.459,4.815c-2.351,1.152-5.085,1.729-8.205,1.729H461.961z
				 M479.909,231.085l-14.422-18.898l8.476-2.644l12.833,16.184c2.268,2.86,0.231,7.075-3.419,7.075l0,0
				C482.017,232.801,480.734,232.167,479.909,231.085z"/>
			<path style="fill:#303030;" d="M519.396,233.48c-3.481,0-6.713-0.623-9.697-1.865c-2.984-1.243-5.594-2.984-7.832-5.222
				c-2.238-2.237-3.956-4.849-5.153-7.833c-1.198-2.983-1.797-6.192-1.797-9.628c0-3.436,0.599-6.646,1.797-9.629
				c1.197-2.984,2.916-5.582,5.153-7.798c2.238-2.215,4.837-3.956,7.798-5.222c2.96-1.264,6.205-1.898,9.731-1.898
				c3.797,0,7.143,0.622,10.036,1.865c1.261,0.542,2.457,1.172,3.589,1.89c2.289,1.451,2.658,4.645,0.742,6.561l-0.18,0.18
				c-1.449,1.449-3.68,1.571-5.404,0.465c-0.665-0.427-1.378-0.803-2.137-1.129c-1.899-0.814-4.114-1.22-6.646-1.22
				c-2.215,0-4.238,0.373-6.069,1.118c-1.83,0.746-3.424,1.831-4.78,3.255c-1.357,1.424-2.397,3.119-3.119,5.086
				c-0.724,1.967-1.085,4.126-1.085,6.476c0,2.396,0.362,4.566,1.085,6.509c0.722,1.945,1.762,3.628,3.119,5.052
				c1.356,1.424,2.95,2.521,4.78,3.29c1.831,0.77,3.854,1.152,6.069,1.152c2.667,0,4.961-0.407,6.883-1.22
				c0.776-0.328,1.503-0.713,2.179-1.152c1.726-1.122,3.97-1.006,5.425,0.449l0.171,0.171c1.92,1.92,1.542,5.116-0.752,6.568
				c-1.152,0.729-2.374,1.362-3.666,1.899C526.696,232.869,523.283,233.48,519.396,233.48z"/>
			<path style="fill:#303030;" d="M543.806,228.191v-43.06h9.221v43.06c0,2.546-2.064,4.611-4.611,4.611h0
				C545.871,232.801,543.806,230.737,543.806,228.191z M549.638,212.255v-8.137h26.649v8.137H549.638z M573.71,228.191v-43.06h9.223
				v43.06c0,2.546-2.064,4.611-4.611,4.611h-0.001C575.774,232.801,573.71,230.737,573.71,228.191z"/>
		</g>
	</g>
</g>
<g id="Character">
	<g id="Character_00000139266540723751579440000010256650342055292064_">
		<g id="Legs">
			<g id="Leg_00000038375629566762607850000010843594079383243940_">
				<path style="fill:#D48983;" d="M138.801,229.987c-11.537,4.811-15.872,8.565-49.844,7.262
					c-4.776,17.093-1.943,26.343,15.351,77.121c-4.324,4.734-13.067,18.63-19.288,28.144c-7.203,11.017-19.937,32.29-31.267,50.012
					c-3.74,2.052-7.402,4.32-11.096,6.5c-2.359,1.391-4.758,2.815-6.582,4.858s-3.014,4.841-2.475,7.526
					c0.424,2.112,1.831,3.874,3.23,5.512c10.034,11.741,21.942,21.738,32.4,33.104c2.764,3.005,5.448,6.122,8.62,8.714
					c1.387,1.134,3.388,2.953,5.182,3.349c1.584,0.349,3.407-1.01,4.047-2.4c0.6-1.303,0.566-2.826,0.204-4.215
					c-0.362-1.388-1.03-2.674-1.676-3.955c-1.144-2.269-2.232-4.567-3.243-6.899c-2.875-6.632-5.469-13.048-6.46-20.226
					c-0.443-3.205-1.634-8.658-0.97-11.855c0.602-2.899,1.36-6.002,3.431-8.071c18.154-18.131,41.968-50.082,50.734-57.922
					c13.725-12.276,21.828-27.856,20.484-51.376C148.216,271.254,145.123,253.918,138.801,229.987z"/>
				
					<path style="fill:#303030;stroke:#248C44;stroke-width:1.5;stroke-linecap:round;stroke-linejoin:round;stroke-miterlimit:10;" d="
					M62.473,374.267c3.161,11.466,17.543,23.025,27.202,27.39c0,0,32.895-37.056,44.55-51.665
					c16.237-20.353,19.182-28.454,19.538-44.37c0.461-20.61-11.669-75.417-11.669-75.417l-54.564,5.134
					c0,0-8.511,18.612,0.444,40.651c7.259,17.866,12.202,38.969,12.202,38.969C85.612,328.147,77.306,347.135,62.473,374.267z"/>
				<g>
					<path style="fill:#248C44;" d="M62.317,372.611l-5.326,8.113c0,0,3.385,7.657,11.054,14.873
						c7.669,7.215,17.006,11.835,17.006,11.835l6.814-6.955c0,0-7.267-2.547-17.182-11.693
						C66.459,381.198,62.317,372.611,62.317,372.611z"/>
					
						<path style="fill:#303030;stroke:#248C44;stroke-width:1.5;stroke-linecap:round;stroke-linejoin:round;stroke-miterlimit:10;" d="
						M91.865,400.477c0,0-7.267-2.547-17.182-11.693c-8.224-7.586-12.366-16.173-12.366-16.173"/>
				</g>
				<g>
					<g>
						
							<path style="fill:#FFFFFF;stroke:#303030;stroke-width:1.5;stroke-linecap:round;stroke-linejoin:round;stroke-miterlimit:10;" d="
							M87.763,461.889c-1.053,1.891-2.944,4.069-2.944,4.069s-8.505-5.241-14.665-11.372c-8.673-8.631-17.945-19.803-21.816-23.581
							c-6.425-6.271-18.677-17.111-20.381-22.576c0.154-0.287,0.329-0.567,0.534-0.847c2.264-3.027,9.796-7.589,14.231-9.716
							c4.104-1.973,7.967-8.451,11.032-5.341c-2.668,3.064-3.981,7.005-1.907,10.793c3.445,6.291,11.145,11.186,15.316,9.382
							c1.578-3.684,2.838-4.925,7.679-2.256c3.281,1.808,5.01,2.567,4.317,6.605c-0.618,3.6-1.691,9.561,0.627,16.935
							c1.674,5.327,4.187,11.325,6.75,17.337C88.593,456.146,89.348,459.043,87.763,461.889z"/>
						<g>
							
								<path style="fill:none;stroke:#303030;stroke-width:1.5;stroke-linecap:round;stroke-linejoin:round;stroke-miterlimit:10;" d="
								M67.298,412.076c-0.299,9.282,0.63,19.983,8.885,32.302"/>
							
								<path style="fill:none;stroke:#303030;stroke-width:1.5;stroke-linecap:round;stroke-linejoin:round;stroke-miterlimit:10;" d="
								M45.653,395.299c-0.734,1.686-0.726,3.629-0.264,5.41c0.462,1.78,1.35,3.421,2.333,4.975
								c2.63,4.157,6.007,7.839,9.921,10.818"/>
							
								<path style="fill:none;stroke:#303030;stroke-width:1.5;stroke-linecap:round;stroke-linejoin:round;stroke-miterlimit:10;" d="
								M37.192,400.986c2.6,7.679,8.288,13.884,14.172,19.462c1.293,1.225,2.605,2.435,3.783,3.772
								c4.466,5.068,3.958,8.572,6.825,14.688c2.902,6.191,3.274,8.975,6.41,12.096"/>
							
								<path style="fill:none;stroke:#303030;stroke-width:1.5;stroke-linecap:round;stroke-linejoin:round;stroke-miterlimit:10;" d="
								M82.737,442.949c-5.059-0.073-10.225,3.391-13.667,7.513"/>
						</g>
						
							<path style="fill:#2e317e;stroke:#303030;stroke-width:1.5;stroke-linecap:round;stroke-linejoin:round;stroke-miterlimit:10;" d="
							M83.153,467.31c-1.552,2.011-4.458,2.318-6.391,0.67c-2.952-2.516-8.207-7.592-19.198-18.53l-28.806-28.666
							c-3.879-3.86-5.996-6.218-5.07-8.491c0.678-1.667,2.698-3.081,4.269-3.863c1.704,5.465,13.187,15.266,20.381,22.576
							c3.795,3.855,13.299,13.285,21.972,21.916c4.212,4.191,13.825,12.874,13.825,12.874S83.811,466.457,83.153,467.31z"/>
					</g>
				</g>
			</g>
			<g id="Leg_00000102505530865163526370000013434188803197160835_">
				<g id="Leg_00000127723937125962623410000016562433968258565279_">
					<path style="fill:#D48983;" d="M113.882,424.374c0.838-10.768,8.764-82.539,11.25-98.339
						c2.486-15.799-6.086-68.643-6.086-68.643l11.607-24.982c-17.885,5.68-37.398,5.434-57.973,1.32
						c-1.2,9.873-2.547,19.134,1.848,39.115c5.448,24.769,10.609,51.514,10.609,51.514s-3.562,23.045-3.562,43.379
						c0,21.105,3.47,59.302,3.736,64.082c0.074,1.323-4.25,17.73-4.879,22.155c-0.242,1.702-0.443,3.594,0.519,5.001
						c0.873,1.278,2.465,1.782,3.959,2.071c2.89,0.559,5.846,0.626,8.786,0.691c18.386,0.409,36.773,0.817,55.16,1.225
						c1.275,0.029,2.585,0.051,3.78-0.407c1.195-0.458,2.262-1.515,2.361-2.822c0.306-4.028-4.358-6.442-7.236-7.92
						c-7.225-3.712-14.82-6.892-21.915-10.929C117.909,436.371,113.128,434.062,113.882,424.374z"/>
					<g>
						<g>
							
								<path style="fill:#FFFFFF;stroke:#303030;stroke-width:1.5;stroke-linecap:round;stroke-linejoin:round;stroke-miterlimit:10;" d="
								M157.048,456.972c0.588,2.083,0.784,4.961,0.784,4.961s-9.726,2.284-18.416,2.284c-12.236,0-26.689-1.379-32.098-1.326
								c-8.978,0.087-25.309,1.046-30.371-1.626c-0.093-0.312-0.166-0.634-0.218-0.977c-0.53-3.743,1.59-12.289,3.233-16.925
								c1.518-4.294,0.983-11.584,5.35-11.543c0.27,4.054,0.823,7.749,4.964,8.97c6.88,2.029,15.79,0.067,17.475-4.153
								c-1.48-3.724-1.463-5.493,3.851-7.016c3.601-1.032,5.362-1.715,7.719,1.637c2.101,2.988,5.546,7.97,12.39,11.562
								c4.944,2.595,10.956,5.074,17.014,7.528C153.585,452.316,156.164,453.837,157.048,456.972z"/>
							<g>
								
									<path style="fill:none;stroke:#303030;stroke-width:1.5;stroke-linecap:round;stroke-linejoin:round;stroke-miterlimit:10;" d="
									M107.404,436.099c6.336,6.791,14.542,13.72,29.084,16.629"/>
								
									<path style="fill:none;stroke:#303030;stroke-width:1.5;stroke-linecap:round;stroke-linejoin:round;stroke-miterlimit:10;" d="
									M80.228,439.475c0.669,1.713,2.046,3.084,3.629,4.021c1.583,0.936,3.37,1.473,5.163,1.881
									c4.796,1.091,9.787,1.319,14.663,0.67"/>
								
									<path style="fill:none;stroke:#303030;stroke-width:1.5;stroke-linecap:round;stroke-linejoin:round;stroke-miterlimit:10;" d="
									M78.242,449.474c7.26,3.609,15.669,3.995,23.774,3.798c1.781-0.043,3.564-0.111,5.342,0.005
									c6.74,0.442,8.852,3.284,15.198,5.597c6.425,2.341,8.652,4.052,13.076,4.052"/>
								
									<path style="fill:none;stroke:#303030;stroke-width:1.5;stroke-linecap:round;stroke-linejoin:round;stroke-miterlimit:10;" d="
									M140.125,447.092c-3.637,3.517-4.855,9.616-4.388,14.966"/>
							</g>
							
								<path style="fill:#2e317e;stroke:#303030;stroke-width:1.5;stroke-linecap:round;stroke-linejoin:round;stroke-miterlimit:10;" d="
								M157.604,464.066c0.318,2.52-1.525,4.787-4.058,4.983c-3.867,0.299-11.173,0.408-26.679,0.408H86.228
								c-5.472,0-8.636-0.178-9.583-2.443c-0.695-1.66-0.261-4.087,0.301-5.749c5.063,2.672,20.116,1.519,30.371,1.626
								c5.409,0.056,18.797,0.036,31.033,0.036c5.942,0,18.881-0.626,18.881-0.626S157.469,462.998,157.604,464.066z"/>
						</g>
					</g>
				</g>
				<g id="Pant">
					<path style="fill:#303030;" d="M128.279,238.198c0.789,13.156-0.384,17.639-1.589,22.972
						c-1.306,5.829-3.633,4.331-1.103,28.316c2.52,23.974,1.447,34.752-0.891,53.332c-3.198,25.371-5.698,68.634-5.698,68.634
						c-11.618,4.645-27.557,5.606-38.79,1.083c0,0-2.884-45.611-1.275-60.771c1.002-9.412,2.54-18.064,3.623-24.136
						c0.718-4.099,0.678-8.288-0.122-12.367c-1.7-8.703-5.91-24.005-9.756-40.612c-2.226-9.594-2.965-17.973-2.965-25.27
						c0-3.613,0.182-6.952,0.455-10.049c0,0,0-0.02,0.01-0.061c0.293-3.35,0.708-6.426,1.123-9.209
						c14.269,4.594,52.209,6.952,70.648-6.851c0.364,2.773,0.708,4.969,1.002,7.104
						C141.202,232.551,136.152,235.638,128.279,238.198z"/>
					<g>
						<path style="fill:#248C44;" d="M78.322,411.876l0.383,8.819c0,0,10.228,3.875,20.756,3.69
							c10.528-0.185,19.301-3.232,19.301-3.232l1.164-9.897c0,0-6.982,3.247-20.466,3.617
							C88.276,415.18,78.322,411.876,78.322,411.876z"/>
						
							<path style="fill:none;stroke:#248C44;stroke-width:1.5;stroke-linecap:round;stroke-linejoin:round;stroke-miterlimit:10;" d="
							M119.926,411.257c0,0-6.982,3.247-20.466,3.617c-11.184,0.306-21.138-2.997-21.138-2.997"/>
					</g>
					<g>
						
							<path style="fill:none;stroke:#248C44;stroke-width:1.5;stroke-linecap:round;stroke-linejoin:round;stroke-miterlimit:10;" d="
							M80.213,412.537c0,0-2.888-45.611-1.279-60.767c1-9.415,2.542-18.072,3.618-24.146c0.725-4.093,0.683-8.281-0.116-12.359
							c-1.705-8.703-6.122-23.954-9.757-40.611"/>
						
							<path style="fill:none;stroke:#248C44;stroke-width:1.5;stroke-linecap:round;stroke-linejoin:round;stroke-miterlimit:10;" d="
							M83.732,232.683c-0.665,6.044-1.59,12.105-1.455,20.33c0.21,12.812,2.835,20.919,5.748,33.193
							c2.164,9.116,3.74,18.29,3.74,27.668c0,13.818-2.487,27.457-3.508,41.213c-1.104,14.864-0.572,44.009-0.128,58.908"/>
						
							<path style="fill:none;stroke:#248C44;stroke-width:1.5;stroke-linecap:round;stroke-linejoin:round;stroke-miterlimit:10;" d="
							M97.163,233.73c0,0-0.851,8.003-0.425,17.723c0.226,5.173,0.187,15.439-4.941,17.86c-2.468,1.165-4.942,1.058-7.616,1.058"/>
						
							<path style="fill:none;stroke:#248C44;stroke-width:1.5;stroke-linecap:round;stroke-linejoin:round;stroke-miterlimit:10;" d="
							M70.498,236.033c14.265,4.594,53.161,7.978,71.595-5.827"/>
						
							<path style="fill:none;stroke:#248C44;stroke-width:1.5;stroke-linecap:round;stroke-linejoin:round;stroke-miterlimit:10;" d="
							M126.234,230.511c3.169,21.541,1.966,25.842,0.461,30.664c-1.78,5.703-3.636,4.326-1.11,28.308
							c2.526,23.981,1.583,32.624-0.891,53.333c-0.485,4.064-1.829,17.008-1.829,17.008"/>
					</g>
					
						<path style="fill:#303030;stroke:#248C44;stroke-width:1.5;stroke-linecap:round;stroke-linejoin:round;stroke-miterlimit:10;" d="
						M81.71,319.306l20.978,1.886c0,0-2.844,14.482-3.893,22.402c-1.049,7.92-4.283,7.71-12.226,6.872
						c-6.327-0.668-9.57-1.207-9.57-1.207C78.39,334.991,80.459,329.453,81.71,319.306z"/>
				</g>
			</g>
		</g>
		<g id="Head_00000006707632541377701150000018370298542019238547_">
			<g>
				<path style="fill:#303030;" d="M72.192,109.371c0.649,10.179,10.11,20.731,20.768,20.051
					c10.658-0.68,18.477-12.334,17.827-22.513c-0.649-10.179-9.816-17.88-20.473-17.2C79.656,90.388,71.543,99.191,72.192,109.371z"
					/>
				<path style="fill:#303030;" d="M77.934,116.253c-1.608,0.262-2.994,0.014-4.388-0.905c-1.542-1.017-2.136-3.694-1.908-5.111
					c-0.638,0.18-1.287,0.348-1.95,0.354s-1.348-0.167-1.85-0.599c-0.31-0.268-0.517-0.803-0.192-1.052
					c0.143-0.109,0.336-0.114,0.514-0.145c0.907-0.155,1.522-1.059,1.697-1.963c0.174-0.904,0.018-1.834-0.023-2.754
					c-0.164-3.662,1.917-8.656,5.673-9.872c1.354-0.438,2.814-0.438,4.229-0.283c0.423-2.38,1.77-4.548,3.577-6.153
					c1.808-1.605,4.056-2.668,6.397-3.271c1.585-0.408,3.242-0.613,4.865-0.399c3.018,0.397,5.644,2.178,8.449,3.362
					c2.804,1.185,6.326,1.68,8.671-0.26c0.416-0.344,0.946-0.782,1.422-0.528c0.197,0.105,0.319,0.308,0.418,0.508
					c1.104,2.22,0.127,4.803-1.623,6.385c1.652-0.106,3.286,0.354,4.461,1.842c1.107,1.402,1.572,3.63,1.469,5.425
					c-0.97-0.79-2.175-1.289-3.42-1.418c1.319,1.632,1.746,3.943,1.097,5.939c-0.509,1.565-1.666,2.899-3.119,3.663
					c-0.771,0.406-1.516,0.402-2.333,0.631c-1.064,0.299-2.13,0.594-3.199,0.875c-4.276,1.125-8.595,2.087-12.945,2.882
					c-2.643,0.483-5.301,0.833-7.951,1.263C83.276,115.108,80.625,115.817,77.934,116.253z"/>
			</g>
			<path style="fill:#D48983;" d="M111.204,114.289c-0.058-2.868,0.007-4.579-0.461-8.215c-0.686-5.335-3.997-9.368-3.997-9.368
				c-5.939-4.46-15.831-2.664-21.85,2.874c0.764,3.975,1.216,7.543-3.448,8.771c1.687,2.692,2.269,3.972,2.637,6.665
				c0.38,2.775-1.292,2.337-2.473,1.127c-1.577-1.563-3.861-2.819-6.141-2.641c-2.969,0.231-4.755,2.125-5.038,4.298
				c-0.28,2.149,1.59,4.303,3.722,4.993c2.132,0.69,4.86,0.47,6.661-0.913c0,0,0.265,2.564,0.493,4.767
				c0.228,2.203,1.201,4.184,2.865,5.611l-0.962,12.31l-5.494,6.959c4.856,3.575,11.911,5.159,21.227,2.5
				c9.956-2.841,11.143-9.092,11.143-9.092l-5.777-1.184l-1.254-7.365c1.252-0.114,6.086-0.714,8.148-3.163
				c2.062-2.449,1.487-5.439,0.829-10.199C111.68,120.456,111.252,116.652,111.204,114.289z"/>
			<g>
				<g>
					<g>
						<path style="fill:#FFFFFF;" d="M102.521,111.583c0.297-1.294,1.477-2.031,2.835-2.256c1.359-0.225,3.347-0.065,3.868,1.818
							C108.88,113.112,104.591,114.057,102.521,111.583z"/>
						<path style="fill:#303030;" d="M106.997,112.073c-0.34,0.868-1.354,1.287-2.264,0.938c-0.91-0.35-1.372-1.337-1.032-2.204
							c0.34-0.867,1.354-1.287,2.264-0.938C106.875,110.219,107.338,111.205,106.997,112.073z"/>
						<polygon style="fill:#FFFFFF;" points="103.576,110.769 105.349,111.44 103.415,111.727 						"/>
						
							<path style="fill:none;stroke:#303030;stroke-width:1.5;stroke-linecap:round;stroke-linejoin:round;stroke-miterlimit:10;" d="
							M109.415,110.768c-0.97-1.327-2.563-1.531-3.922-1.306c-1.359,0.225-2.682,1.202-2.972,2.12"/>
					</g>
					
						<path style="fill:none;stroke:#303030;stroke-width:1.5;stroke-linecap:round;stroke-linejoin:round;stroke-miterlimit:10;" d="
						M102.658,102.646c2.596-0.401,5.329,0.511,6.794,1.956"/>
				</g>
				<g>
					<g>
						<path style="fill:#FFFFFF;" d="M89.767,112.692c0.302-1.293,1.485-2.026,2.844-2.245c1.359-0.22,3.347-0.051,3.861,1.832
							C96.119,114.245,91.827,115.174,89.767,112.692z"/>
						<path style="fill:#303030;" d="M94.241,113.204c-0.343,0.866-1.359,1.282-2.267,0.929c-0.909-0.353-1.367-1.342-1.024-2.208
							c0.344-0.866,1.359-1.282,2.268-0.928C94.126,111.349,94.585,112.338,94.241,113.204z"/>
						<polygon style="fill:#FFFFFF;" points="90.825,111.887 92.596,112.564 90.66,112.845 						"/>
						
							<path style="fill:none;stroke:#303030;stroke-width:1.5;stroke-linecap:round;stroke-linejoin:round;stroke-miterlimit:10;" d="
							M96.664,111.904c-0.965-1.331-2.557-1.541-3.917-1.321c-1.359,0.22-2.687,1.192-2.98,2.109"/>
					</g>
					
						<path style="fill:none;stroke:#303030;stroke-width:1.5;stroke-linecap:round;stroke-linejoin:round;stroke-miterlimit:10;" d="
						M85.971,108.686c0.789-2.271,3.418-4.489,5.966-4.946"/>
				</g>
				<path style="fill:none;stroke:#303030;stroke-width:1.5;stroke-linecap:round;stroke-linejoin:round;stroke-miterlimit:10;" d="
					M99.321,108.053c0.941,3.666,2.635,5.864,3.691,7.65c0.809,1.37,1.105,3.843-2.462,4.321"/>
				<path style="fill:none;stroke:#303030;stroke-width:1.5;stroke-linecap:round;stroke-linejoin:round;stroke-miterlimit:10;" d="
					M101.522,124.033c-2.672,0.982-6.391,0.2-7.926-1.827"/>
				<g>
					
						<path style="fill:none;stroke:#303030;stroke-width:1.5;stroke-linecap:round;stroke-linejoin:round;stroke-miterlimit:10;" d="
						M73.484,117.548c0.374-0.51,1.595-1.335,2.961-1.134c1.366,0.201,2.587,1.111,3.12,2.328"/>
					
						<path style="fill:none;stroke:#303030;stroke-width:1.5;stroke-linecap:round;stroke-linejoin:round;stroke-miterlimit:10;" d="
						M75.743,118.784c0.329-0.62,1.662-1.695,3.098-1.122"/>
				</g>
				<path style="fill:#303030;" d="M103.058,136.384c-4.769,0.056-10.182-0.779-13.46-2.561c0.954,1.992,4.97,5.059,14.007,5.901
					L103.058,136.384z"/>
			</g>
		</g>
		<g id="Arm_00000169538161577856048270000009148179257839725696_">
			<path style="fill:#D48983;" d="M219.985,175.764c-2.372,1.165-5.949,2.328-5.949,2.328c2.323-1.107,6.099-3.746,8.018-5.319
				c2.494-2.044,5.403-5.505,4.671-7.4c-0.384-1.286-1.4-1.718-2.588-1.278c0.501-1.038,1.403-2.756-0.62-3.402
				c-1.768-0.565-4.744,2.145-7.103,3.992c-1.386,1.085-3.423,2.423-5.536,4.042c2.424-2.453,4.117-4.466,5.898-7.32
				c1.13-1.81,2.334-3.695,0.731-4.633c-1.603-0.937-3.53,1.144-4.772,2.605c-1.242,1.461-4.33,4.787-5.702,5.81
				c-1.49,1.111-3.558,2.736-3.949,0.702c-0.391-2.034,2.246-4.93,1.832-7.218c-0.267-1.477-1.529-2.833-2.906-1.584
				c-1.378,1.25-2.282,3.469-3.353,5.175c-1.381,2.199-2.652,4.798-3.625,7.228c-1.53,3.822-3.718,3.902-10.074,4.892
				c-5.242,0.816-25.688,1.496-25.688,1.496l-28.147-22.146l-14.02,18.94c9.326,7.399,23.245,16.561,28.714,19.948
				c6.566,4.067,9.963,6.356,20.907,4.694c10.101-1.534,24.923-6.198,28.886-7.337c3.964-1.139,9.745-2.8,13.442-3.992
				c3.697-1.192,6.45-2.183,9.289-3.729c2.471-1.345,7.774-4.121,6.628-6.723C224.295,174.006,222.657,174.452,219.985,175.764z"/>
			<path style="fill:none;stroke:#303030;stroke-width:1.5;stroke-linecap:round;stroke-linejoin:round;stroke-miterlimit:10;" d="
				M212.819,172.953c4.219-2.379,7.91-5.338,11.283-8.808"/>
			<path style="fill:none;stroke:#303030;stroke-width:1.5;stroke-linecap:round;stroke-linejoin:round;stroke-miterlimit:10;" d="
				M205.459,173.283c-1.643-0.284-3.364,0.292-4.671,1.329c-1.306,1.036-2.228,2.496-2.849,4.043"/>
			<path style="fill:#248C44;" d="M125.765,147.212c7.55,1.04,10.145,2.366,14.796,7.697c4.874,5.587,11.055,12.486,11.055,12.486
				c7.646,5.074-3.333,21.991-7.667,25.303l-25.865-16.336L125.765,147.212z"/>
			<g>
				
					<path style="fill:#248C44;stroke:#303030;stroke-width:1.5;stroke-linecap:round;stroke-linejoin:round;stroke-miterlimit:10;" d="
					M136.064,189.986c-0.86,2.945,2.018,4.124,5.372,4.598c3.041,0.43,3.586,2.374,6.65,2.809
					c2.287,0.324,8.149-3.535,12.018-10.784c3.87-7.249,3.343-11.597,2.702-12.865c-0.641-1.268-2.207-1.944-5.051-3.967
					c-2.844-2.023-3.42-7.372-7.521-4.172l1.383,1.79c0,0,2.348,3.295-2.991,12.352c-5.339,9.057-10.456,11.436-10.456,11.436
					L136.064,189.986z"/>
				<path style="fill:none;stroke:#303030;stroke-width:1.5;stroke-linecap:round;stroke-linejoin:round;stroke-miterlimit:10;" d="
					M157.006,179.417c-2.065,7.152-7.378,13.158-14.016,15.58"/>
				<path style="fill:none;stroke:#303030;stroke-width:1.5;stroke-linecap:round;stroke-linejoin:round;stroke-miterlimit:10;" d="
					M151.616,167.395c0,0,2.348,3.295-2.991,12.352c-5.339,9.057-10.456,11.436-10.456,11.436"/>
			</g>
		</g>
		<g id="Chest_00000090270041254708147700000004346724931516489624_">
			<g id="Chest_00000116225532816129630470000009419300970490173869_">
				
					<path id="Chest_00000080901955120131877590000015002395646163538575_" style="fill:#FFFFFF;stroke:#303030;stroke-width:1.5;stroke-linecap:round;stroke-linejoin:round;stroke-miterlimit:10;" d="
					M84.181,144.824c12.236,7.675,22.928,4.277,20.773-1.144l20.1,5.898c0,0,8.527,9.435,10.267,22.486
					c1.74,13.051,3.48,49.594,3.48,49.594s-5.807,8.049-26.657,8.549c-20.849,0.5-37.652-3.328-37.652-3.328
					s3.277-9.223,2.122-14.443c-1.155-5.22-4.983-16.009-8.986-29.061c-4.002-13.051-5.568-22.42,0-27.48
					C73.198,150.834,84.181,144.824,84.181,144.824z"/>
				<path style="fill:#248C44;" d="M141.951,223.21c-18.439,13.804-56.379,11.446-70.648,6.851c0.051-0.334,0.101-0.668,0.152-0.992
					c0.374-2.874,0.799-5.951,1.224-8.683c1.235-7.964-3.532-12.771-8.663-30.066c-4.099-13.814-8.258-31.301,3.926-38.092
					c8.562-4.777,14.34-6.659,14.34-6.659c6.912,8.167,20.776,13.024,28.336,14.462c2.601-4.848,3.502-8.754,0.921-15.21
					c0,0,8.622,1.649,14.229,2.388c4.787,2.915,11.061,10.221,12.397,22.072c1.508,13.338,1.316,16.728,2.237,35.491
					C140.827,213.465,141.404,219.001,141.951,223.21z"/>
				<path style="fill:none;stroke:#303030;stroke-width:1.5;stroke-linecap:round;stroke-linejoin:round;stroke-miterlimit:10;" d="
					M126.234,230.511c-3.092-21.012-3.387-58.565-15.618-70.482"/>
				<path style="fill:none;stroke:#303030;stroke-width:1.5;stroke-linecap:round;stroke-linejoin:round;stroke-miterlimit:10;" d="
					M71.48,230.131c14.265,4.594,51.874,7.001,70.308-6.804"/>
				<path style="fill:none;stroke:#303030;stroke-width:1.5;stroke-linecap:round;stroke-linejoin:round;stroke-miterlimit:10;" d="
					M142.954,230.315c-0.735-5.362-1.842-11.121-2.553-25.547c-0.924-18.76-0.731-22.15-2.233-35.486"/>
			</g>
			<g id="Neck">
				<g>
					
						<path style="fill:#248C44;stroke:#303030;stroke-width:1.5;stroke-linecap:round;stroke-linejoin:round;stroke-miterlimit:10;" d="
						M83.525,140.567c4.083,6.969,20.997,17.508,27.091,19.463c-10.281-0.244-10.638-2.421-15.652-1.786
						c-2.684,0.34-5.507,2.55-5.507,2.55s-11.206-7.637-12.842-13.167c1.783-1.098,4.215-2.803,4.215-2.803
						S81.101,140.901,83.525,140.567z"/>
					
						<path style="fill:none;stroke:#303030;stroke-width:1.5;stroke-linecap:round;stroke-linejoin:round;stroke-miterlimit:10;" d="
						M80.83,144.824c1.111,3.91,8.306,8.381,11.071,9.507"/>
				</g>
				
					<path style="fill:#248C44;stroke:#303030;stroke-width:1.5;stroke-linecap:round;stroke-linejoin:round;stroke-miterlimit:10;" d="
					M104.382,139.826c0.186,1.126,0.572,3.854,0.572,3.854c1.345,2.626,7.319,8.276,5.662,16.35c4.672-3.542,4.594-8.438,5.99-9.256
					c1.395-0.818,4.746,0,4.746,0l-7.656-5.952l-0.598-0.512c-1.641-1.403-3.513-2.512-5.532-3.277L104.382,139.826z"/>
			</g>
		</g>
		<g id="Magnifying_Glass_00000117651490164319005410000014304450629142903682_">
			<g>
				
					<path style="fill:#2e317e;stroke:#303030;stroke-width:2;stroke-linecap:round;stroke-linejoin:round;stroke-miterlimit:10;" d="
					M144.92,256.882c-5.645,0.236-9.239-2.304-11.09-7.204c-0.489-1.294-0.282-2.752,0.459-3.921l2.07-3.262l14.359,9.004
					l-2.075,3.27C147.832,256.047,146.432,256.819,144.92,256.882z"/>
				
					<path style="fill:#303030;stroke:#303030;stroke-width:2;stroke-linecap:round;stroke-linejoin:round;stroke-miterlimit:10;" d="
					M192.891,183.352c-2.782-5.097-7.072-7.818-12.868-8.166c-0.616-0.037-1.167,0.246-1.465,0.716l-41.339,65.213
					c-0.643,1.014-0.755,2.323-0.208,3.525c2.073,4.55,5.683,7.066,11.1,7.188c1.451,0.033,2.752-0.583,3.456-1.693l41.301-65.153
					C193.165,184.512,193.187,183.893,192.891,183.352z"/>
				
					<path style="fill:#303030;stroke:#303030;stroke-width:2;stroke-linecap:round;stroke-linejoin:round;stroke-miterlimit:10;" d="
					M200.676,163.341c-1.409-2.581-3.581-3.96-6.517-4.135c-0.312-0.019-0.591,0.124-0.742,0.362l-27.625,43.523
					c-0.326,0.514-0.383,1.176-0.105,1.785c1.05,2.304,2.878,3.578,5.621,3.641c0.735,0.017,1.394-0.295,1.75-0.857l27.605-43.493
					C200.815,163.929,200.826,163.615,200.676,163.341z"/>
				
					<line style="fill:none;stroke:#FFFFFF;stroke-width:2;stroke-linecap:round;stroke-linejoin:round;stroke-miterlimit:10;" x1="178.747" y1="180.402" x2="144.141" y2="234.708"/>
			</g>
			<g>
				
					<path style="fill:#303030;stroke:#303030;stroke-width:2;stroke-linecap:round;stroke-linejoin:round;stroke-miterlimit:10;" d="
					M157.399,132.084c18.334,36.323,62.639,50.914,98.962,32.58c36.323-18.334,50.908-62.65,32.574-98.973
					c-18.334-36.323-62.65-50.908-98.973-32.574C153.639,51.45,139.064,95.761,157.399,132.084z M169.857,125.796
					c-14.859-29.437-3.038-65.352,26.399-80.21c29.448-14.864,65.362-3.044,80.221,26.393c14.864,29.448,3.044,65.362-26.404,80.226
					C220.635,167.063,184.721,155.243,169.857,125.796z"/>
				
					<path style="fill:#248C44;stroke:#303030;stroke-width:2;stroke-linecap:round;stroke-linejoin:round;stroke-miterlimit:10;" d="
					M167.273,132.707c18.334,36.323,62.639,50.914,98.962,32.58c36.323-18.334,50.908-62.65,32.574-98.973
					c-18.334-36.323-62.65-50.908-98.973-32.574C163.513,52.074,148.939,96.384,167.273,132.707z M179.732,126.419
					c-14.859-29.437-3.038-65.351,26.399-80.21c29.448-14.864,65.362-3.044,80.221,26.393c14.864,29.448,3.044,65.362-26.404,80.226
					C230.51,167.687,194.596,155.867,179.732,126.419z"/>
			</g>
			<g>
				
					<line style="fill:none;stroke:#FF95FB;stroke-width:2;stroke-linecap:round;stroke-linejoin:round;stroke-miterlimit:10;" x1="264.005" y1="71.523" x2="192.75" y2="126.154"/>
				
					<line style="fill:none;stroke:#FF95FB;stroke-width:2;stroke-linecap:round;stroke-linejoin:round;stroke-miterlimit:10;" x1="237.172" y1="54.945" x2="186.371" y2="93.893"/>
				
					<line style="fill:none;stroke:#FF95FB;stroke-width:2;stroke-linecap:round;stroke-linejoin:round;stroke-miterlimit:10;" x1="269.184" y1="102.633" x2="218.383" y2="141.582"/>
			</g>
		</g>
		<g id="Arm_00000104697346679529068100000014917113179517420167_">
			<path style="fill:#D48983;" d="M163.683,234.866c-0.725-1.959-5.198-1.954-7.773-1.954c-1.02,0-2.829-0.196-4.55-0.465
				c2.26,0.108,5.187,0.006,6.933-0.448c2.031-0.528,4.167-1.06,3.656-2.814c-0.511-1.754-3.294-1.57-5.171-1.367
				c-2.197,0.238-4.586,0.344-6.901-0.19c-2.315-0.534-3.685-1.616-3.477-2.561c0.208-0.945,0.921-1.18,2.167-1.617
				c1.707-0.598,2.237-0.713,3.436-1.391c1.198-0.679,1.879-1.693,1.976-2.698c0.285-2.979-2.565-1.772-4.204-1.429
				c-2.577,0.539-4.697,0.779-8.248,1.824c-1.277,0.376-2.945,1.253-5.167,1.572c-0.983,0.141-3.778,0.23-5.657-0.707
				c-3.411-1.702-12.46-6.707-16.24-9.06c-3.418-2.128-6.832-4.262-10.241-6.405c-7.466-14.84-12.478-24.497-17.034-33.464
				c-4.556-8.967-9.805-12.981-15.998-12.234l-3.068,31.515c0,0,6.279,11.189,13.059,22.417c2.833,4.691,4.836,9.107,15.133,13.538
				c4.468,1.923,29.081,9.375,32.743,11.039c5.872,2.668,3.927,2.087,7.373,3.737c3.446,1.649,6.082,2.804,9.156,3.621
				c2.675,0.711,8.522,2.374,9.281-0.318c0.351-1.245-1.18-2.256-3.975-3.126c-0.459-0.143-0.942-0.301-1.423-0.463
				c2.077,0.443,4.332,0.692,5.651,0.69c3.334-0.005,7.03-0.098,7.668-1.991c0.501-1.488,0.032-1.947-0.962-2.401
				C162.745,237.49,164.408,236.825,163.683,234.866z"/>
			<path style="fill:#248C44;" d="M65.458,188.754l9.683,18.002c0,0,5.877,0.464,13.771-4.161
				c7.894-4.625,10.059-9.337,10.059-9.337s-7.113-14.908-12.006-24.505c-4.222-8.281-8.841-16.416-19.018-16.528
				C53.992,159.741,57.513,173.984,65.458,188.754z"/>
			<path style="fill:none;stroke:#303030;stroke-width:1.5;stroke-linecap:round;stroke-linejoin:round;stroke-miterlimit:10;" d="
				M98.971,193.258c0,0-7.113-14.908-12.006-24.505"/>
			<path style="fill:none;stroke:#303030;stroke-width:1.5;stroke-linecap:round;stroke-linejoin:round;stroke-miterlimit:10;" d="
				M67.947,152.225c-13.955,7.516-10.434,21.759-2.489,36.529l9.683,18.002"/>
			<g>
				
					<path style="fill:#248C44;stroke:#303030;stroke-width:1.5;stroke-linecap:round;stroke-linejoin:round;stroke-miterlimit:10;" d="
					M73.408,203.533c-2.293,2.039-0.48,4.566,2.109,6.749c2.348,1.979,1.778,3.916,4.143,5.911
					c1.765,1.489,8.782,1.333,15.911-2.754c7.129-4.087,8.991-8.05,9.122-9.466c0.131-1.415-0.838-2.82-2.173-6.044
					c-1.335-3.224-1.425-9.724-5.184-8.084l1.248,2.805c0,0,0.239,4.039-9.095,8.877c-9.334,4.838-14.933,4.136-14.933,4.136
					L73.408,203.533z"/>
				<path style="fill:none;stroke:#303030;stroke-width:1.5;stroke-linecap:round;stroke-linejoin:round;stroke-miterlimit:10;" d="
					M96.765,205.701c-5.548,4.964-13.24,7.23-20.151,5.757"/>
				<path style="fill:none;stroke:#303030;stroke-width:1.5;stroke-linecap:round;stroke-linejoin:round;stroke-miterlimit:10;" d="
					M98.583,192.652c0,0,0.239,4.039-9.095,8.877c-9.334,4.838-14.933,4.136-14.933,4.136"/>
			</g>
			<path style="fill:none;stroke:#303030;stroke-width:1.5;stroke-linecap:round;stroke-linejoin:round;stroke-miterlimit:10;" d="
				M147.294,236.697c4.622,1.155,9.775,1.214,14.531,1.018"/>
			<path style="fill:none;stroke:#303030;stroke-width:1.5;stroke-linecap:round;stroke-linejoin:round;stroke-miterlimit:10;" d="
				M156.017,232.41c3.035,0.387,6.966,0.531,7.666,2.455c0.665,1.831-0.303,2.617-1.859,2.849c1.628,1.081,1.19,2.908-0.225,3.797
				c-1.758,1.105-4.997,1.221-9.091,0.862c-2.515-0.22-4.697-0.811-6.404-1.217"/>
			<path style="fill:none;stroke:#303030;stroke-width:1.5;stroke-linecap:round;stroke-linejoin:round;stroke-miterlimit:10;" d="
				M147.837,232.083c2.496,0.395,5.689,0.586,9.731,0.073c4.042-0.513,4.8-1.259,4.851-2.434c0.059-1.351-1.195-2.492-5.675-2.155"
				/>
		</g>
	</g>
</g>
<g id="Arrow">
	
		<path id="Cursor" style="fill:#248C44;stroke:#303030;stroke-width:1.5;stroke-linecap:round;stroke-linejoin:round;stroke-miterlimit:10;" d="
		M700.403,398.075h26.37l-61.684-62.659v88.276l18.735-18.735l11.023,26.962c1.421,3.476,4.774,5.581,8.311,5.581
		c1.131,0,2.281-0.215,3.393-0.67c4.588-1.876,6.786-7.116,4.911-11.705L700.403,398.075z"/>
</g>
</svg>
