<svg xmlns="http://www.w3.org/2000/svg" version="1.1" xmlns:xlink="http://www.w3.org/1999/xlink" width="20" height="20" x="0" y="0" viewBox="0 0 512 512" style="enable-background:new 0 0 512 512" xml:space="preserve" class=""><g><path d="M417.684 485.053c7.447 0 13.474-6.026 13.474-13.474v-67.368h67.368c7.447 0 13.474-6.026 13.474-13.474s-6.026-13.474-13.474-13.474h-67.368v-67.368c0-7.447-6.026-13.474-13.474-13.474s-13.474 6.026-13.474 13.474v67.368h-67.368c-7.447 0-13.474 6.026-13.474 13.474s6.026 13.474 13.474 13.474h67.368v67.368c.001 7.447 6.027 13.474 13.474 13.474z" fill="#2e317e" opacity="1" data-original="#000000" class=""></path><path d="M67.368 404.211h215.579c7.447 0 13.474-6.026 13.474-13.474s-6.026-13.474-13.474-13.474H67.368c-22.289 0-40.421-18.132-40.421-40.421v-148.21h458.105v148.211c0 7.447 6.026 13.474 13.474 13.474S512 344.29 512 336.842V94.316c0-37.145-30.224-67.368-67.368-67.368H67.368C30.224 26.947 0 57.171 0 94.316v242.526c0 37.145 30.224 67.369 67.368 67.369zm0-350.316h377.263c22.289 0 40.421 18.132 40.421 40.421v67.368H26.947V94.316c0-22.29 18.132-40.421 40.421-40.421z" fill="#2e317e" opacity="1" data-original="#000000" class=""></path><path d="M121.263 269.474c-7.447 0-13.474 6.026-13.474 13.474s6.026 13.474 13.474 13.474h53.895c7.447 0 13.474-6.026 13.474-13.474s-6.026-13.474-13.474-13.474z" fill="#2e317e" opacity="1" data-original="#000000" class=""></path></g></svg>