<svg clip-rule="evenodd" fill-rule="evenodd" height="43.349mm" image-rendering="optimizeQuality" shape-rendering="geometricPrecision" text-rendering="geometricPrecision" viewBox="0 0 43.3492 43.3492" width="43.349mm" xmlns="http://www.w3.org/2000/svg"><g id="Layer_x0020_1"><path d="m18.7919 40.4666c-10.3656 0-18.7919-8.4264-18.7919-18.792s8.4263-18.792 18.7919-18.792c4.7533 0 9.2138 1.7264 12.689 4.912-1.1559.6835-2.2714 1.4406-3.3443 2.2601-2.6332-2.1243-5.9073-3.2939-9.3447-3.2939-8.2149 0-14.9137 6.6989-14.9137 14.9138s6.6988 14.9138 14.9137 14.9138c11.4303 0 18.2165-12.2181 13.3002-21.7178.7451-.6929 1.512-1.3645 2.2992-2.0137.2324-.1917.4668-.3816.7029-.5696 1.6446 2.8405 2.49 6.0611 2.49 9.3872-.0002 10.3657-8.4266 18.7921-18.7923 18.7921z"/><path d="m19.2856 31.335c-.2115 0-.3878-.141-.4583-.3173-.0352-.0705-3.0674-7.8976-7.7566-10.8592-.9167-.5641-1.6217-1.1635-1.3397-2.5033.282-1.3045 1.1635-2.0449 2.75-2.3975 2.8205-.5994 5.8526 3.7725 6.9809 5.5707 3.9487-5.7469 11.8463-14.7728 23.3401-15.8305.5545-.065.7595.7569.2468.9872-.1763.0705-16.6062 7.5804-23.2697 25.0679-.1057.1762-.282.282-.4935.282z"/></g></svg>