<svg width="530" height="60" viewBox="0 0 530 60" fill="none" xmlns="http://www.w3.org/2000/svg">
<rect x="0.5" y="0.5" width="529" height="59" rx="29.5" fill="white" stroke="#2E317E"/>
<circle cx="500" cy="30" r="28.5" fill="#DAECDF" stroke="#DAECDF"/>
<path d="M37.368 39.144C36.12 39.144 34.92 38.944 33.768 38.544C32.632 38.128 31.752 37.6 31.128 36.96L31.824 35.592C32.416 36.168 33.208 36.656 34.2 37.056C35.208 37.44 36.264 37.632 37.368 37.632C38.424 37.632 39.28 37.504 39.936 37.248C40.608 36.976 41.096 36.616 41.4 36.168C41.72 35.72 41.88 35.224 41.88 34.68C41.88 34.024 41.688 33.496 41.304 33.096C40.936 32.696 40.448 32.384 39.84 32.16C39.232 31.92 38.56 31.712 37.824 31.536C37.088 31.36 36.352 31.176 35.616 30.984C34.88 30.776 34.2 30.504 33.576 30.168C32.968 29.832 32.472 29.392 32.088 28.848C31.72 28.288 31.536 27.56 31.536 26.664C31.536 25.832 31.752 25.072 32.184 24.384C32.632 23.68 33.312 23.12 34.224 22.704C35.136 22.272 36.304 22.056 37.728 22.056C38.672 22.056 39.608 22.192 40.536 22.464C41.464 22.72 42.264 23.08 42.936 23.544L42.336 24.96C41.616 24.48 40.848 24.128 40.032 23.904C39.232 23.68 38.456 23.568 37.704 23.568C36.696 23.568 35.864 23.704 35.208 23.976C34.552 24.248 34.064 24.616 33.744 25.08C33.44 25.528 33.288 26.04 33.288 26.616C33.288 27.272 33.472 27.8 33.84 28.2C34.224 28.6 34.72 28.912 35.328 29.136C35.952 29.36 36.632 29.56 37.368 29.736C38.104 29.912 38.832 30.104 39.552 30.312C40.288 30.52 40.96 30.792 41.568 31.128C42.192 31.448 42.688 31.88 43.056 32.424C43.44 32.968 43.632 33.68 43.632 34.56C43.632 35.376 43.408 36.136 42.96 36.84C42.512 37.528 41.824 38.088 40.896 38.52C39.984 38.936 38.808 39.144 37.368 39.144ZM52.4936 39.12C51.1816 39.12 50.0296 38.848 49.0376 38.304C48.0456 37.744 47.2696 36.984 46.7096 36.024C46.1496 35.048 45.8696 33.936 45.8696 32.688C45.8696 31.44 46.1336 30.336 46.6616 29.376C47.2056 28.416 47.9416 27.664 48.8696 27.12C49.8136 26.56 50.8696 26.28 52.0376 26.28C53.2216 26.28 54.2696 26.552 55.1816 27.096C56.1096 27.624 56.8376 28.376 57.3656 29.352C57.8936 30.312 58.1576 31.424 58.1576 32.688C58.1576 32.768 58.1496 32.856 58.1336 32.952C58.1336 33.032 58.1336 33.12 58.1336 33.216H47.1656V31.944H57.2216L56.5496 32.448C56.5496 31.536 56.3496 30.728 55.9496 30.024C55.5656 29.304 55.0376 28.744 54.3656 28.344C53.6936 27.944 52.9176 27.744 52.0376 27.744C51.1736 27.744 50.3976 27.944 49.7096 28.344C49.0216 28.744 48.4856 29.304 48.1016 30.024C47.7176 30.744 47.5256 31.568 47.5256 32.496V32.76C47.5256 33.72 47.7336 34.568 48.1496 35.304C48.5816 36.024 49.1736 36.592 49.9256 37.008C50.6936 37.408 51.5656 37.608 52.5416 37.608C53.3096 37.608 54.0216 37.472 54.6776 37.2C55.3496 36.928 55.9256 36.512 56.4056 35.952L57.3656 37.056C56.8056 37.728 56.1016 38.24 55.2536 38.592C54.4216 38.944 53.5016 39.12 52.4936 39.12ZM69.1704 39V36.216L69.0984 35.76V31.104C69.0984 30.032 68.7944 29.208 68.1864 28.632C67.5944 28.056 66.7064 27.768 65.5224 27.768C64.7064 27.768 63.9304 27.904 63.1944 28.176C62.4584 28.448 61.8344 28.808 61.3224 29.256L60.5544 27.984C61.1944 27.44 61.9624 27.024 62.8584 26.736C63.7544 26.432 64.6984 26.28 65.6904 26.28C67.3224 26.28 68.5784 26.688 69.4584 27.504C70.3544 28.304 70.8024 29.528 70.8024 31.176V39H69.1704ZM64.8264 39.12C63.8824 39.12 63.0584 38.968 62.3544 38.664C61.6664 38.344 61.1384 37.912 60.7704 37.368C60.4024 36.808 60.2184 36.168 60.2184 35.448C60.2184 34.792 60.3704 34.2 60.6744 33.672C60.9944 33.128 61.5064 32.696 62.2104 32.376C62.9304 32.04 63.8904 31.872 65.0904 31.872H69.4344V33.144H65.1384C63.9224 33.144 63.0744 33.36 62.5944 33.792C62.1304 34.224 61.8984 34.76 61.8984 35.4C61.8984 36.12 62.1784 36.696 62.7384 37.128C63.2984 37.56 64.0824 37.776 65.0904 37.776C66.0504 37.776 66.8744 37.56 67.5624 37.128C68.2664 36.68 68.7784 36.04 69.0984 35.208L69.4824 36.384C69.1624 37.216 68.6024 37.88 67.8024 38.376C67.0184 38.872 66.0264 39.12 64.8264 39.12ZM75.4307 39V26.4H77.0627V29.832L76.8947 29.232C77.2467 28.272 77.8387 27.544 78.6707 27.048C79.5027 26.536 80.5347 26.28 81.7667 26.28V27.936C81.7027 27.936 81.6387 27.936 81.5747 27.936C81.5107 27.92 81.4467 27.912 81.3827 27.912C80.0547 27.912 79.0147 28.32 78.2627 29.136C77.5107 29.936 77.1347 31.08 77.1347 32.568V39H75.4307ZM89.9908 39.12C88.7428 39.12 87.6228 38.848 86.6308 38.304C85.6548 37.744 84.8868 36.984 84.3268 36.024C83.7668 35.048 83.4868 33.936 83.4868 32.688C83.4868 31.424 83.7668 30.312 84.3268 29.352C84.8868 28.392 85.6548 27.64 86.6308 27.096C87.6228 26.552 88.7428 26.28 89.9908 26.28C91.0628 26.28 92.0308 26.488 92.8948 26.904C93.7588 27.32 94.4388 27.944 94.9348 28.776L93.6628 29.64C93.2308 29 92.6948 28.528 92.0548 28.224C91.4148 27.92 90.7188 27.768 89.9668 27.768C89.0708 27.768 88.2628 27.976 87.5428 28.392C86.8228 28.792 86.2548 29.36 85.8388 30.096C85.4228 30.832 85.2148 31.696 85.2148 32.688C85.2148 33.68 85.4228 34.544 85.8388 35.28C86.2548 36.016 86.8228 36.592 87.5428 37.008C88.2628 37.408 89.0708 37.608 89.9668 37.608C90.7188 37.608 91.4148 37.456 92.0548 37.152C92.6948 36.848 93.2308 36.384 93.6628 35.76L94.9348 36.624C94.4388 37.44 93.7588 38.064 92.8948 38.496C92.0308 38.912 91.0628 39.12 89.9908 39.12ZM104.527 26.28C105.551 26.28 106.447 26.48 107.215 26.88C107.999 27.264 108.607 27.856 109.039 28.656C109.487 29.456 109.711 30.464 109.711 31.68V39H108.007V31.848C108.007 30.52 107.671 29.52 106.999 28.848C106.343 28.16 105.415 27.816 104.215 27.816C103.319 27.816 102.535 28 101.863 28.368C101.207 28.72 100.695 29.24 100.327 29.928C99.9748 30.6 99.7988 31.416 99.7988 32.376V39H98.0948V21.192H99.7988V29.856L99.4628 29.208C99.8628 28.296 100.503 27.584 101.383 27.072C102.263 26.544 103.311 26.28 104.527 26.28ZM127.099 39.12C126.011 39.12 125.027 38.872 124.147 38.376C123.267 37.864 122.563 37.136 122.035 36.192C121.523 35.232 121.267 34.064 121.267 32.688C121.267 31.312 121.523 30.152 122.035 29.208C122.547 28.248 123.243 27.52 124.123 27.024C125.003 26.528 125.995 26.28 127.099 26.28C128.299 26.28 129.371 26.552 130.315 27.096C131.275 27.624 132.027 28.376 132.571 29.352C133.115 30.312 133.387 31.424 133.387 32.688C133.387 33.968 133.115 35.088 132.571 36.048C132.027 37.008 131.275 37.76 130.315 38.304C129.371 38.848 128.299 39.12 127.099 39.12ZM120.595 43.656V26.4H122.227V30.192L122.059 32.712L122.299 35.256V43.656H120.595ZM126.979 37.608C127.875 37.608 128.675 37.408 129.379 37.008C130.083 36.592 130.643 36.016 131.059 35.28C131.475 34.528 131.683 33.664 131.683 32.688C131.683 31.712 131.475 30.856 131.059 30.12C130.643 29.384 130.083 28.808 129.379 28.392C128.675 27.976 127.875 27.768 126.979 27.768C126.083 27.768 125.275 27.976 124.555 28.392C123.851 28.808 123.291 29.384 122.875 30.12C122.475 30.856 122.275 31.712 122.275 32.688C122.275 33.664 122.475 34.528 122.875 35.28C123.291 36.016 123.851 36.592 124.555 37.008C125.275 37.408 126.083 37.608 126.979 37.608ZM136.86 39V26.4H138.492V29.832L138.324 29.232C138.676 28.272 139.268 27.544 140.1 27.048C140.932 26.536 141.964 26.28 143.196 26.28V27.936C143.132 27.936 143.068 27.936 143.004 27.936C142.94 27.92 142.876 27.912 142.812 27.912C141.484 27.912 140.444 28.32 139.692 29.136C138.94 29.936 138.564 31.08 138.564 32.568V39H136.86ZM151.325 39.12C150.109 39.12 149.013 38.848 148.037 38.304C147.077 37.744 146.317 36.984 145.757 36.024C145.197 35.048 144.917 33.936 144.917 32.688C144.917 31.424 145.197 30.312 145.757 29.352C146.317 28.392 147.077 27.64 148.037 27.096C148.997 26.552 150.093 26.28 151.325 26.28C152.573 26.28 153.677 26.552 154.637 27.096C155.613 27.64 156.373 28.392 156.917 29.352C157.477 30.312 157.757 31.424 157.757 32.688C157.757 33.936 157.477 35.048 156.917 36.024C156.373 36.984 155.613 37.744 154.637 38.304C153.661 38.848 152.557 39.12 151.325 39.12ZM151.325 37.608C152.237 37.608 153.045 37.408 153.749 37.008C154.453 36.592 155.005 36.016 155.405 35.28C155.821 34.528 156.029 33.664 156.029 32.688C156.029 31.696 155.821 30.832 155.405 30.096C155.005 29.36 154.453 28.792 153.749 28.392C153.045 27.976 152.245 27.768 151.349 27.768C150.453 27.768 149.653 27.976 148.949 28.392C148.245 28.792 147.685 29.36 147.269 30.096C146.853 30.832 146.645 31.696 146.645 32.688C146.645 33.664 146.853 34.528 147.269 35.28C147.685 36.016 148.245 36.592 148.949 37.008C149.653 37.408 150.445 37.608 151.325 37.608ZM166.251 39.12C165.051 39.12 163.971 38.848 163.011 38.304C162.067 37.76 161.323 37.008 160.779 36.048C160.235 35.072 159.963 33.952 159.963 32.688C159.963 31.408 160.235 30.288 160.779 29.328C161.323 28.368 162.067 27.624 163.011 27.096C163.971 26.552 165.051 26.28 166.251 26.28C167.355 26.28 168.339 26.528 169.203 27.024C170.083 27.52 170.779 28.248 171.291 29.208C171.819 30.152 172.083 31.312 172.083 32.688C172.083 34.048 171.827 35.208 171.315 36.168C170.803 37.128 170.107 37.864 169.227 38.376C168.363 38.872 167.371 39.12 166.251 39.12ZM166.371 37.608C167.267 37.608 168.067 37.408 168.771 37.008C169.491 36.592 170.051 36.016 170.451 35.28C170.867 34.528 171.075 33.664 171.075 32.688C171.075 31.696 170.867 30.832 170.451 30.096C170.051 29.36 169.491 28.792 168.771 28.392C168.067 27.976 167.267 27.768 166.371 27.768C165.491 27.768 164.699 27.976 163.995 28.392C163.291 28.792 162.731 29.36 162.315 30.096C161.899 30.832 161.691 31.696 161.691 32.688C161.691 33.664 161.899 34.528 162.315 35.28C162.731 36.016 163.291 36.592 163.995 37.008C164.699 37.408 165.491 37.608 166.371 37.608ZM171.123 39V35.208L171.291 32.664L171.051 30.12V21.192H172.755V39H171.123ZM182.709 39.12C181.637 39.12 180.701 38.92 179.901 38.52C179.101 38.12 178.477 37.52 178.029 36.72C177.597 35.92 177.381 34.92 177.381 33.72V26.4H179.085V33.528C179.085 34.872 179.413 35.888 180.069 36.576C180.741 37.248 181.677 37.584 182.877 37.584C183.757 37.584 184.517 37.408 185.157 37.056C185.813 36.688 186.309 36.16 186.645 35.472C186.997 34.784 187.173 33.96 187.173 33V26.4H188.877V39H187.245V35.544L187.509 36.168C187.109 37.096 186.485 37.824 185.637 38.352C184.805 38.864 183.829 39.12 182.709 39.12ZM198.858 39.12C197.61 39.12 196.49 38.848 195.498 38.304C194.522 37.744 193.754 36.984 193.194 36.024C192.634 35.048 192.354 33.936 192.354 32.688C192.354 31.424 192.634 30.312 193.194 29.352C193.754 28.392 194.522 27.64 195.498 27.096C196.49 26.552 197.61 26.28 198.858 26.28C199.93 26.28 200.898 26.488 201.762 26.904C202.626 27.32 203.306 27.944 203.802 28.776L202.53 29.64C202.098 29 201.562 28.528 200.922 28.224C200.282 27.92 199.586 27.768 198.834 27.768C197.938 27.768 197.13 27.976 196.41 28.392C195.69 28.792 195.122 29.36 194.706 30.096C194.29 30.832 194.082 31.696 194.082 32.688C194.082 33.68 194.29 34.544 194.706 35.28C195.122 36.016 195.69 36.592 196.41 37.008C197.13 37.408 197.938 37.608 198.834 37.608C199.586 37.608 200.282 37.456 200.922 37.152C201.562 36.848 202.098 36.384 202.53 35.76L203.802 36.624C203.306 37.44 202.626 38.064 201.762 38.496C200.898 38.912 199.93 39.12 198.858 39.12ZM211.274 39.12C210.09 39.12 209.178 38.8 208.538 38.16C207.898 37.52 207.578 36.616 207.578 35.448V23.616H209.282V35.352C209.282 36.088 209.466 36.656 209.834 37.056C210.218 37.456 210.762 37.656 211.466 37.656C212.218 37.656 212.842 37.44 213.338 37.008L213.938 38.232C213.602 38.536 213.194 38.76 212.714 38.904C212.25 39.048 211.77 39.12 211.274 39.12ZM205.322 27.816V26.4H213.122V27.816H205.322ZM229.753 26.28C230.777 26.28 231.673 26.48 232.441 26.88C233.225 27.264 233.833 27.856 234.265 28.656C234.713 29.456 234.937 30.464 234.937 31.68V39H233.233V31.848C233.233 30.52 232.897 29.52 232.225 28.848C231.569 28.16 230.641 27.816 229.441 27.816C228.545 27.816 227.761 28 227.089 28.368C226.433 28.72 225.921 29.24 225.553 29.928C225.201 30.6 225.025 31.416 225.025 32.376V39H223.321V21.192H225.025V29.856L224.689 29.208C225.089 28.296 225.729 27.584 226.609 27.072C227.489 26.544 228.537 26.28 229.753 26.28ZM244.892 39.12C243.58 39.12 242.428 38.848 241.436 38.304C240.444 37.744 239.668 36.984 239.108 36.024C238.548 35.048 238.268 33.936 238.268 32.688C238.268 31.44 238.532 30.336 239.06 29.376C239.604 28.416 240.34 27.664 241.268 27.12C242.212 26.56 243.268 26.28 244.436 26.28C245.62 26.28 246.668 26.552 247.58 27.096C248.508 27.624 249.236 28.376 249.764 29.352C250.292 30.312 250.556 31.424 250.556 32.688C250.556 32.768 250.548 32.856 250.532 32.952C250.532 33.032 250.532 33.12 250.532 33.216H239.564V31.944H249.62L248.948 32.448C248.948 31.536 248.748 30.728 248.348 30.024C247.964 29.304 247.436 28.744 246.764 28.344C246.092 27.944 245.316 27.744 244.436 27.744C243.572 27.744 242.796 27.944 242.108 28.344C241.42 28.744 240.884 29.304 240.5 30.024C240.116 30.744 239.924 31.568 239.924 32.496V32.76C239.924 33.72 240.132 34.568 240.548 35.304C240.98 36.024 241.572 36.592 242.324 37.008C243.092 37.408 243.964 37.608 244.94 37.608C245.708 37.608 246.42 37.472 247.076 37.2C247.748 36.928 248.324 36.512 248.804 35.952L249.764 37.056C249.204 37.728 248.5 38.24 247.652 38.592C246.82 38.944 245.9 39.12 244.892 39.12ZM254.024 39V26.4H255.656V29.832L255.488 29.232C255.84 28.272 256.432 27.544 257.264 27.048C258.096 26.536 259.128 26.28 260.36 26.28V27.936C260.296 27.936 260.232 27.936 260.168 27.936C260.104 27.92 260.04 27.912 259.976 27.912C258.648 27.912 257.608 28.32 256.856 29.136C256.104 29.936 255.728 31.08 255.728 32.568V39H254.024ZM268.705 39.12C267.393 39.12 266.241 38.848 265.249 38.304C264.257 37.744 263.481 36.984 262.921 36.024C262.361 35.048 262.081 33.936 262.081 32.688C262.081 31.44 262.345 30.336 262.873 29.376C263.417 28.416 264.153 27.664 265.081 27.12C266.025 26.56 267.081 26.28 268.249 26.28C269.433 26.28 270.481 26.552 271.393 27.096C272.321 27.624 273.049 28.376 273.577 29.352C274.105 30.312 274.369 31.424 274.369 32.688C274.369 32.768 274.361 32.856 274.345 32.952C274.345 33.032 274.345 33.12 274.345 33.216H263.377V31.944H273.433L272.761 32.448C272.761 31.536 272.561 30.728 272.161 30.024C271.777 29.304 271.249 28.744 270.577 28.344C269.905 27.944 269.129 27.744 268.249 27.744C267.385 27.744 266.609 27.944 265.921 28.344C265.233 28.744 264.697 29.304 264.313 30.024C263.929 30.744 263.737 31.568 263.737 32.496V32.76C263.737 33.72 263.945 34.568 264.361 35.304C264.793 36.024 265.385 36.592 266.137 37.008C266.905 37.408 267.777 37.608 268.753 37.608C269.521 37.608 270.233 37.472 270.889 37.2C271.561 36.928 272.137 36.512 272.617 35.952L273.577 37.056C273.017 37.728 272.313 38.24 271.465 38.592C270.633 38.944 269.713 39.12 268.705 39.12ZM284.286 39.12C283.934 39.12 283.63 38.992 283.374 38.736C283.134 38.48 283.014 38.168 283.014 37.8C283.014 37.416 283.134 37.104 283.374 36.864C283.63 36.624 283.934 36.504 284.286 36.504C284.638 36.504 284.934 36.624 285.174 36.864C285.43 37.104 285.558 37.416 285.558 37.8C285.558 38.168 285.43 38.48 285.174 38.736C284.934 38.992 284.638 39.12 284.286 39.12ZM289.372 39.12C289.02 39.12 288.716 38.992 288.46 38.736C288.22 38.48 288.1 38.168 288.1 37.8C288.1 37.416 288.22 37.104 288.46 36.864C288.716 36.624 289.02 36.504 289.372 36.504C289.724 36.504 290.02 36.624 290.26 36.864C290.516 37.104 290.644 37.416 290.644 37.8C290.644 38.168 290.516 38.48 290.26 38.736C290.02 38.992 289.724 39.12 289.372 39.12ZM294.458 39.12C294.106 39.12 293.802 38.992 293.546 38.736C293.306 38.48 293.186 38.168 293.186 37.8C293.186 37.416 293.306 37.104 293.546 36.864C293.802 36.624 294.106 36.504 294.458 36.504C294.81 36.504 295.106 36.624 295.346 36.864C295.602 37.104 295.73 37.416 295.73 37.8C295.73 38.168 295.602 38.48 295.346 38.736C295.106 38.992 294.81 39.12 294.458 39.12ZM299.544 39.12C299.192 39.12 298.888 38.992 298.632 38.736C298.392 38.48 298.272 38.168 298.272 37.8C298.272 37.416 298.392 37.104 298.632 36.864C298.888 36.624 299.192 36.504 299.544 36.504C299.896 36.504 300.192 36.624 300.432 36.864C300.688 37.104 300.816 37.416 300.816 37.8C300.816 38.168 300.688 38.48 300.432 38.736C300.192 38.992 299.896 39.12 299.544 39.12ZM304.63 39.12C304.278 39.12 303.974 38.992 303.718 38.736C303.478 38.48 303.358 38.168 303.358 37.8C303.358 37.416 303.478 37.104 303.718 36.864C303.974 36.624 304.278 36.504 304.63 36.504C304.982 36.504 305.278 36.624 305.518 36.864C305.774 37.104 305.902 37.416 305.902 37.8C305.902 38.168 305.774 38.48 305.518 38.736C305.278 38.992 304.982 39.12 304.63 39.12Z" fill="#9C9C9C"/>
<path d="M512 42L506.2 36.2M509.333 28.6667C509.333 34.5577 504.558 39.3333 498.667 39.3333C492.776 39.3333 488 34.5577 488 28.6667C488 22.7756 492.776 18 498.667 18C504.558 18 509.333 22.7756 509.333 28.6667Z" stroke="#2E317E" stroke-width="3" stroke-linecap="round" stroke-linejoin="round"/>
</svg>
