<svg xmlns="http://www.w3.org/2000/svg" version="1.1" xmlns:xlink="http://www.w3.org/1999/xlink" width="512" height="512" x="0" y="0" viewBox="0 0 24 24" style="enable-background:new 0 0 512 512" xml:space="preserve" class=""><g><path d="M23 22V5.75a.75.75 0 0 0-.75-.75H15v17h-1V.75a.75.75 0 0 0-.75-.75H2.75A.75.75 0 0 0 2 .75V22H1a1 1 0 1 0 0 2h22a1 1 0 1 0 0-2zM20 8.75a.75.75 0 0 1 1.5 0v1.5a.75.75 0 0 1-1.5 0zm0 5a.75.75 0 0 1 1.5 0v1.5a.75.75 0 0 1-1.5 0zm0 5a.75.75 0 0 1 1.5 0v1.75a.75.75 0 0 1-1.5 0zm-3.5-10a.75.75 0 0 1 1.5 0v1.5a.75.75 0 0 1-1.5 0zm0 5a.75.75 0 0 1 1.5 0v1.5a.75.75 0 0 1-1.5 0zm0 5a.75.75 0 0 1 1.5 0v1.75a.75.75 0 0 1-1.5 0zm-7-15a.75.75 0 0 1 1.5 0v1.5a.75.75 0 0 1-1.5 0zm0 5a.75.75 0 0 1 1.5 0v1.5a.75.75 0 0 1-1.5 0zm0 5a.75.75 0 0 1 1.5 0v1.5a.75.75 0 0 1-1.5 0zm0 5a.75.75 0 0 1 1.5 0v1.5a.75.75 0 0 1-1.5 0zM5 3.75a.75.75 0 0 1 1.5 0v1.5a.75.75 0 0 1-1.5 0zm0 5a.75.75 0 0 1 1.5 0v1.5a.75.75 0 0 1-1.5 0zm0 5a.75.75 0 0 1 1.5 0v1.5a.75.75 0 0 1-1.5 0zm0 5a.75.75 0 0 1 1.5 0v1.5a.75.75 0 0 1-1.5 0z" fill="#2e317e" opacity="1" data-original="#000000" class=""></path></g></svg>